<?xml version="1.0" encoding="UTF-8"?><svg xmlns="http://www.w3.org/2000/svg" xmlns:xlink="http://www.w3.org/1999/xlink" fill-opacity="1" color-rendering="auto" color-interpolation="auto" text-rendering="auto" stroke="black" stroke-linecap="square" width="548" stroke-miterlimit="10" shape-rendering="auto" stroke-opacity="1" fill="black" stroke-dasharray="none" font-weight="normal" stroke-width="1" height="778" font-family="'Dialog'" font-style="normal" stroke-linejoin="miter" font-size="12px" stroke-dashoffset="0" image-rendering="auto">
  <!--Generated by ySVG 2.6-->
  <defs id="genericDefs"/>
  <g>
    <defs id="defs1">
      <clipPath clipPathUnits="userSpaceOnUse" id="clipPath1">
        <path d="M0 0 L548 0 L548 778 L0 778 L0 0 Z"/>
      </clipPath>
      <clipPath clipPathUnits="userSpaceOnUse" id="clipPath2">
        <path d="M-15 -15 L533 -15 L533 763 L-15 763 L-15 -15 Z"/>
      </clipPath>
    </defs>
    <g fill="white" text-rendering="geometricPrecision" shape-rendering="geometricPrecision" transform="translate(15,15)" stroke="white">
      <rect x="-15" width="548" height="778" y="-15" clip-path="url(#clipPath2)" stroke="none"/>
    </g>
    <g text-rendering="geometricPrecision" stroke-miterlimit="1.45" shape-rendering="geometricPrecision" transform="matrix(1,0,0,1,15,15)" stroke-linecap="butt">
      <rect x="47" y="0" clip-path="url(#clipPath2)" fill="none" width="179" rx="35.5" ry="35.5" height="71"/>
      <text x="115.5293" xml:space="preserve" y="40.2139" clip-path="url(#clipPath2)" font-family="sans-serif" stroke="none">Начало</text>
    </g>
    <g text-rendering="geometricPrecision" stroke-miterlimit="1.45" shape-rendering="geometricPrecision" transform="matrix(1,0,0,1,15,15)" stroke-linecap="butt">
      <path fill="none" d="M65.105 101 L226 101 L207.895 172 L47 172 Z" clip-path="url(#clipPath2)"/>
      <text x="109.4648" xml:space="preserve" y="133.8633" clip-path="url(#clipPath2)" font-family="sans-serif" stroke="none">Ввод: eps</text>
      <text x="115.0137" xml:space="preserve" y="148.5645" clip-path="url(#clipPath2)" font-family="sans-serif" stroke="none">Выод: x</text>
    </g>
    <g text-rendering="geometricPrecision" stroke-miterlimit="1.45" shape-rendering="geometricPrecision" transform="matrix(1,0,0,1,15,15)" stroke-linecap="butt">
      <path fill="none" d="M136.5 202 L226 237.5 L136.5 273 L47 237.5 Z" clip-path="url(#clipPath2)"/>
      <text x="116.0537" xml:space="preserve" y="242.2139" clip-path="url(#clipPath2)" font-family="sans-serif" stroke="none">eps ≤ 0</text>
    </g>
    <g text-rendering="geometricPrecision" stroke-miterlimit="1.45" shape-rendering="geometricPrecision" transform="matrix(1,0,0,1,15,15)" stroke-linecap="butt">
      <path fill="none" d="M324.8066 202 L485.7016 202 L467.5966 273 L306.7016 273 Z" clip-path="url(#clipPath2)"/>
      <text x="376.1948" xml:space="preserve" y="227.5127" clip-path="url(#clipPath2)" font-family="sans-serif" stroke="none">Вывод:</text>
      <text x="346.2358" xml:space="preserve" y="242.2139" clip-path="url(#clipPath2)" font-family="sans-serif" stroke="none">Eps должно быть </text>
      <text x="359.9203" xml:space="preserve" y="256.915" clip-path="url(#clipPath2)" font-family="sans-serif" stroke="none">больше нуля</text>
    </g>
    <g text-rendering="geometricPrecision" stroke-miterlimit="1.45" shape-rendering="geometricPrecision" transform="matrix(1,0,0,1,15,15)" stroke-linecap="butt">
      <rect x="306.7016" y="321.7012" clip-path="url(#clipPath2)" fill="none" width="179" rx="35.5" ry="35.5" height="71"/>
      <text x="379.2827" xml:space="preserve" y="361.915" clip-path="url(#clipPath2)" font-family="sans-serif" stroke="none">Конец</text>
    </g>
    <g text-rendering="geometricPrecision" stroke-miterlimit="1.45" shape-rendering="geometricPrecision" transform="matrix(1,0,0,1,15,15)" stroke-linecap="butt">
      <path fill="none" d="M15 588.5012 L258 588.5012 L258 724.3011 L15 724.3011 Z" clip-path="url(#clipPath2)"/>
      <text x="122.9883" xml:space="preserve" y="624.3621" clip-path="url(#clipPath2)" font-family="sans-serif" stroke="none">n = 1</text>
      <text x="85.3008" xml:space="preserve" y="639.0633" clip-path="url(#clipPath2)" font-family="sans-serif" stroke="none">doubleFactorial = 1</text>
      <text x="95.3145" xml:space="preserve" y="653.7645" clip-path="url(#clipPath2)" font-family="sans-serif" stroke="none">currentSum = 1</text>
      <text x="134.833" xml:space="preserve" y="668.4656" clip-path="url(#clipPath2)" font-family="sans-serif" stroke="none"> </text>
      <text x="48.4746" xml:space="preserve" y="683.1668" clip-path="url(#clipPath2)" font-family="sans-serif" stroke="none">exactSum = (exp(x) + exp(-x)) / 2</text>
      <text x="26.6221" xml:space="preserve" y="697.868" clip-path="url(#clipPath2)" font-family="sans-serif" stroke="none">difference = abs(currentSum - exactSum)</text>
    </g>
    <g text-rendering="geometricPrecision" stroke-miterlimit="1.45" shape-rendering="geometricPrecision" transform="matrix(1,0,0,1,15,15)" stroke-linecap="butt">
      <path fill="none" d="M65.105 321.7012 L226 321.7012 L207.895 392.7012 L47 392.7012 Z" clip-path="url(#clipPath2)"/>
      <text x="116.1387" xml:space="preserve" y="354.5645" clip-path="url(#clipPath2)" font-family="sans-serif" stroke="none">Ввод: x</text>
      <text x="111.8262" xml:space="preserve" y="369.2656" clip-path="url(#clipPath2)" font-family="sans-serif" stroke="none">Вывод: x</text>
    </g>
    <g text-rendering="geometricPrecision" stroke-miterlimit="1.45" shape-rendering="geometricPrecision" transform="matrix(1,0,0,1,15,15)" stroke-linecap="butt">
      <path fill="none" d="M136.5 455.1012 L226 490.6012 L136.5 526.1012 L47 490.6012 Z" clip-path="url(#clipPath2)"/>
      <text x="93.6387" xml:space="preserve" y="495.315" clip-path="url(#clipPath2)" font-family="sans-serif" stroke="none">difference &gt; eps</text>
    </g>
    <g text-rendering="geometricPrecision" stroke-miterlimit="1.45" shape-rendering="geometricPrecision" transform="matrix(1,0,0,1,15,15)" stroke-linecap="butt">
      <path fill="none" d="M309.3306 422.7012 L517.7016 422.7012 L483.0726 558.5012 L274.7016 558.5012 Z" clip-path="url(#clipPath2)"/>
      <text x="376.1948" xml:space="preserve" y="458.5621" clip-path="url(#clipPath2)" font-family="sans-serif" stroke="none">Вывод:</text>
      <text x="329.809" xml:space="preserve" y="473.2633" clip-path="url(#clipPath2)" font-family="sans-serif" stroke="none">Сумма членов: currSum</text>
      <text x="318.5414" xml:space="preserve" y="487.9644" clip-path="url(#clipPath2)" font-family="sans-serif" stroke="none">Точное значение: exactSum</text>
      <text x="340.5375" xml:space="preserve" y="502.6656" clip-path="url(#clipPath2)" font-family="sans-serif" stroke="none">Число слагаемых: n</text>
      <text x="320.6186" xml:space="preserve" y="517.3668" clip-path="url(#clipPath2)" font-family="sans-serif" stroke="none">Разность суммы и точного </text>
      <text x="340.7397" xml:space="preserve" y="532.068" clip-path="url(#clipPath2)" font-family="sans-serif" stroke="none">значения: difference</text>
    </g>
    <g text-rendering="geometricPrecision" stroke-miterlimit="1.45" shape-rendering="geometricPrecision" transform="matrix(1,0,0,1,15,15)" stroke-linecap="butt">
      <rect x="306.7016" y="620.9012" clip-path="url(#clipPath2)" fill="none" width="179" rx="35.5" ry="35.5" height="71"/>
      <text x="379.2827" xml:space="preserve" y="661.1151" clip-path="url(#clipPath2)" font-family="sans-serif" stroke="none">Конец</text>
    </g>
    <g text-rendering="geometricPrecision" stroke-miterlimit="1.45" shape-rendering="geometricPrecision" transform="matrix(1,0,0,1,15,15)" stroke-linecap="butt">
      <path fill="none" d="M136.5 71 L136.5 92.9707" clip-path="url(#clipPath2)"/>
    </g>
    <g text-rendering="geometricPrecision" stroke-miterlimit="1.45" shape-rendering="geometricPrecision" transform="matrix(1,0,0,1,15,15)" stroke-linecap="butt">
      <path d="M136.5 100.9707 L141.5 88.9707 L136.5 91.9707 L131.5 88.9707 Z" stroke="none" clip-path="url(#clipPath2)"/>
      <path fill="none" d="M136.5 172 L136.5 194" clip-path="url(#clipPath2)"/>
      <path d="M136.5 202 L141.5 190 L136.5 193 L131.5 190 Z" clip-path="url(#clipPath2)" stroke="none"/>
      <path fill="none" d="M226 237.5 L307.7328 237.5" clip-path="url(#clipPath2)"/>
      <path d="M315.7328 237.5 L303.7328 232.5 L306.7328 237.5 L303.7328 242.5 Z" clip-path="url(#clipPath2)" stroke="none"/>
      <text x="238.6729" xml:space="preserve" y="230.8633" clip-path="url(#clipPath2)" font-family="sans-serif" stroke="none">да</text>
      <path fill="none" d="M396.2016 273 L396.2016 313.6536" clip-path="url(#clipPath2)"/>
      <path d="M396.2016 321.6536 L401.2016 309.6536 L396.2016 312.6536 L391.2016 309.6536 Z" clip-path="url(#clipPath2)" stroke="none"/>
      <path fill="none" d="M136.5 273 L136.5 313.6536" clip-path="url(#clipPath2)"/>
      <path d="M136.5 321.6536 L141.5 309.6536 L136.5 312.6536 L131.5 309.6536 Z" clip-path="url(#clipPath2)" stroke="none"/>
      <text x="113.7031" xml:space="preserve" y="297.1895" clip-path="url(#clipPath2)" font-family="sans-serif" stroke="none">нет</text>
      <path fill="none" d="M136.5 724.3434 L136.5 747.8517 L0 747.8517 L0 424.8874 L136.5 424.8874 L136.5 447.0987" clip-path="url(#clipPath2)"/>
      <path d="M136.5 455.0987 L141.5 443.0987 L136.5 446.0987 L131.5 443.0987 Z" clip-path="url(#clipPath2)" stroke="none"/>
      <path fill="none" d="M136.5 392.7012 L136.5 447.0707" clip-path="url(#clipPath2)"/>
      <path d="M136.5 455.0707 L141.5 443.0707 L136.5 446.0707 L131.5 443.0707 Z" clip-path="url(#clipPath2)" stroke="none"/>
      <path fill="none" d="M136.5 526.1317 L136.5 580.4707" clip-path="url(#clipPath2)"/>
      <path d="M136.5 588.4707 L141.5 576.4707 L136.5 579.4707 L131.5 576.4707 Z" clip-path="url(#clipPath2)" stroke="none"/>
      <text x="118.8242" xml:space="preserve" y="550.2906" clip-path="url(#clipPath2)" font-family="sans-serif" stroke="none">да</text>
      <path fill="none" d="M226 490.6012 L284.0131 490.6012" clip-path="url(#clipPath2)"/>
      <path d="M292.0131 490.6012 L280.0131 485.6012 L283.0131 490.6012 L280.0131 495.6012 Z" clip-path="url(#clipPath2)" stroke="none"/>
      <text x="238.125" xml:space="preserve" y="483.9644" clip-path="url(#clipPath2)" font-family="sans-serif" stroke="none">Нет</text>
      <path fill="none" d="M396.2016 558.5012 L396.2016 612.8707" clip-path="url(#clipPath2)"/>
      <path d="M396.2016 620.8707 L401.2016 608.8707 L396.2016 611.8707 L391.2016 608.8707 Z" clip-path="url(#clipPath2)" stroke="none"/>
    </g>
  </g>
</svg>
